<?xml version="1.0" encoding="UTF-8" standalone="no"?>
<svg width="52px" height="58px" viewBox="0 0 52 58" version="1.1" xmlns="http://www.w3.org/2000/svg" xmlns:xlink="http://www.w3.org/1999/xlink">
    <!-- Generator: Sketch 42 (36781) - http://www.bohemiancoding.com/sketch -->
    <title>r_document_write</title>
    <desc>Created with Sketch.</desc>
    <defs></defs>
    <g id="Page-1" stroke="none" stroke-width="1" fill="none" fill-rule="evenodd">
        <g id="r_document_write" transform="translate(-38.000000, -35.000000)" fill="#E2304C">
            <g transform="translate(38.000000, 35.000000)" id="Fill-1">
                <path d="M46.5083856,14.3875259 C47.5978313,13.148927 48.1486907,11.7761873 48.0460825,10.1967114 C47.8976644,7.91170264 46.6024313,6.29306155 44.8395385,4.91752435 C41.9002898,2.62412308 38.5987012,3.85153197 36.9675295,6.49434262 C40.130547,9.11099652 43.3007,11.733805 46.5083856,14.3875259 M17.1819733,48.5525746 C13.8549824,45.8030388 10.6985295,43.1943578 7.41306714,40.4793713 C5.3570487,44.8762227 4.65705769,49.4937979 3.76298151,54.214881 C8.55189044,52.8025565 13.014565,51.1805584 17.1819733,48.5525746 M19.6263048,45.6462382 C27.7825914,36.1688232 35.8974923,26.7393856 44.0435039,17.2738601 C40.8168379,14.6057319 37.6452578,11.9830634 34.4260127,9.32081001 C26.2450373,18.7905318 18.1134394,28.2031844 9.95130162,37.6509457 C13.2097919,40.3438318 16.402493,42.9823063 19.6263048,45.6462382 M15.1248131,54.1573921 L15.8897371,54.1573921 C27.0651899,54.1573921 38.2404999,54.1565529 49.4159527,54.1615884 C49.79185,54.1617283 50.186585,54.1617283 50.5397915,54.2671945 C51.3025748,54.4954716 51.8243214,55.2575142 51.8226089,56.0238929 C51.8207536,56.8230025 51.2683244,57.5794501 50.4650116,57.7962573 C50.1056686,57.893331 49.7162139,57.9168301 49.3403166,57.91697 C34.5982633,57.9227049 19.8562101,57.9222853 5.11415681,57.9206068 C4.49750826,57.9204669 3.86344913,57.9888661 3.26706535,57.875427 C0.94075476,57.4325806 -0.35433564,55.4955825 0.0849247734,52.9806182 C0.789054364,48.9496816 1.63218319,44.9460207 3.04486637,41.0811164 C3.59472679,39.5768936 4.39118954,38.2371646 5.45737361,37.007098 C15.307767,25.6434598 25.1000775,14.231005 34.9817243,2.8935236 C37.250951,0.289878132 40.2799641,-0.535108489 43.6995735,0.331561077 C48.3165173,1.50162094 52.0278254,6.12339238 51.9603237,10.6338228 C51.9263588,12.9027458 51.0852279,14.9142976 49.6056139,16.6403632 C43.8711106,23.3297766 38.1157717,30.0017055 32.3675682,36.6796491 C28.6886552,40.9534099 24.9933306,45.2138825 21.3366804,49.5056873 C19.8965969,51.1959447 18.2565772,52.6012755 16.185717,53.4935423 C15.8182395,53.6517416 15.4674591,53.8475676 15.1089724,54.0261888 C15.1142526,54.06983 15.1195329,54.1137509 15.1248131,54.1573921"></path>
            </g>
        </g>
    </g>
</svg>